<svg width="30" height="40" viewBox="0 0 30 40" fill="none" xmlns="http://www.w3.org/2000/svg">
<path fill-rule="evenodd" clip-rule="evenodd" d="M15.0529 7.02023C16.3089 7.02023 17.3556 8.08454 17.3556 9.36073C17.3556 10.7417 16.3089 11.8059 15.0529 11.8059C13.6905 11.8059 12.6438 10.7417 12.6438 9.36073C12.6438 8.08454 13.6905 7.02023 15.0529 7.02023ZM15.0529 14.1464C18.1931 14.1464 20.8117 16.806 20.8117 19.9988V21.275H9.29406V19.9988C9.29406 16.6988 11.9125 14.1464 15.0529 14.1464ZM15.1691 2.24406C22.2803 2.24406 27.8233 8.16546 27.8233 15.1059C27.8233 18.7202 26.3577 22.125 23.7426 24.5726C23.4269 24.9988 23.1145 25.2107 22.6959 25.3155C21.9613 26.0631 21.021 27.125 20.8117 28.4012H16.2025V23.6131H21.9613C22.5895 23.6131 23.1145 23.0845 23.1145 22.4464V19.9988C23.1145 16.6988 21.3334 13.9345 18.5055 12.5512C19.3462 11.8059 19.7648 10.7417 19.7648 9.57499C19.7648 7.02023 17.668 4.89168 15.1558 4.89168C12.6437 4.89168 10.5501 7.02023 10.5501 9.57499C10.5501 10.7417 10.9689 11.8059 11.7032 12.5512C8.98165 13.9345 7.20063 16.6988 7.20063 19.9988V22.4464C7.20063 23.0845 7.72235 23.6131 8.35375 23.6131H14.1091V28.4012H9.19095V28.2988C8.87524 26.8059 8.14094 26.1679 7.30351 25.5298C7.09422 25.2107 6.67562 24.9988 6.25679 24.5726C3.22281 21.594 1.9668 17.3393 2.59493 13.0821C3.43235 7.55118 8.14094 2.97501 13.5874 2.33692C14.1224 2.27263 14.6507 2.24406 15.1691 2.24406ZM20.8117 30.6369V31.8059C20.8117 32.5512 20.2865 33.0821 19.6586 33.0821H10.4472C9.81907 33.0821 9.29406 32.5512 9.29406 31.8059V30.6369H20.8117ZM18.4023 35.3178V36.4869C18.4023 37.125 17.8773 37.7631 17.2495 37.7631H12.6438C12.0156 37.7631 11.4939 37.125 11.4939 36.4869V35.3178H18.4023ZM14.9432 0.00119019C14.3584 0.00119019 13.7669 0.0345096 13.1688 0.105938C6.67563 0.848795 1.33867 6.17023 0.291948 12.7655C-0.545474 17.6583 1.12937 22.6583 4.68835 26.1679C5.21007 26.5917 5.62867 26.9131 5.8382 27.2298C6.78179 27.9774 6.88492 28.1893 6.88492 29.3607V31.7012C6.88492 33.1893 7.82851 34.5726 9.29406 35.1059V36.3822C9.29406 38.5083 10.8658 39.9988 12.6438 39.9988H17.2495C19.2398 39.9988 20.7053 38.4012 20.7053 36.4869V35.2107C21.9613 34.6798 23.008 33.5083 23.008 31.9131V29.4655C23.008 28.2988 23.1145 28.1893 24.055 27.3393C24.3705 27.125 24.6829 26.806 25.2079 26.3798C28.2419 23.5107 29.92 19.4679 29.92 15.2107C29.92 6.95595 23.3305 0.00119019 14.9432 0.00119019Z" fill="#3D63C1"/>
</svg>
