<svg width="40" height="42" viewBox="0 0 40 42" fill="none" xmlns="http://www.w3.org/2000/svg">
<path fill-rule="evenodd" clip-rule="evenodd" d="M19.9998 3.06608L26.7382 6.52247L19.9998 10.0885L13.3717 6.52247L19.9998 3.06608ZM11.8982 8.46998L18.9475 12.1433V21.5423L11.8982 17.8642V8.46998ZM28.3152 8.46998V17.8642L21.2626 21.5423V12.1433L28.3152 8.46998ZM10.7389 19.919L17.4743 23.485L10.7389 26.9414L3.89704 23.485L10.7389 19.919ZM29.4745 19.919L36.3166 23.485L29.4745 26.9414L22.8429 23.485L29.4745 19.919ZM18.9475 25.3205V34.6122L11.8982 38.2856V28.9914L18.9475 25.3205ZM37.7898 25.3205V34.8292L30.7373 38.3904V28.9914L37.7898 25.3205ZM2.42355 25.4301L9.47612 29.1011V38.5001L2.42355 34.934V25.4301ZM21.2626 25.4301L28.3152 29.1011V38.5001L21.2626 34.934V25.4301ZM20.0398 0.50119C19.8696 0.50119 19.6859 0.527405 19.4754 0.584615L10.2112 5.44264C9.7903 5.76921 9.47612 6.20067 9.47612 6.52247V17.8642L0.739834 22.4052C0.318904 22.6221 0.00146484 23.0536 0.00146484 23.485V35.4775C0.00146484 35.909 0.318904 36.2308 0.739834 36.5574L10.2112 41.4178C10.318 41.4702 10.475 41.4988 10.6589 41.4988C10.8426 41.4988 11.0531 41.4702 11.2636 41.4178L19.9998 36.7719L28.8431 41.4178C29.0001 41.4702 29.1571 41.4988 29.3308 41.4988C29.5012 41.4988 29.685 41.4702 29.8954 41.4178L39.3668 36.5574C39.7877 36.2308 39.9982 35.909 39.9982 35.4775V23.485C39.9982 23.0536 39.8945 22.6221 39.3668 22.4052L30.5268 17.8642V6.52247C30.5268 6.20067 30.3164 5.76921 29.8954 5.44264L20.5277 0.584615C20.3708 0.527405 20.2103 0.50119 20.0398 0.50119Z" fill="#3D63C1"/>
</svg>
