<svg width="40" height="36" viewBox="0 0 40 36" fill="none" xmlns="http://www.w3.org/2000/svg">
<path fill-rule="evenodd" clip-rule="evenodd" d="M7.79672 2.55294C11.0696 2.84564 14.4434 4.02353 17.2248 6.28L18.2172 6.9647V32.1741H18.1165C15.0389 29.9176 11.4665 28.5435 7.79672 28.3482V2.55294ZM31.2177 2.74918V28.4471C27.447 28.6424 23.8717 29.9176 20.7972 32.1741V7.16L21.7893 6.37646C24.467 4.21882 27.8439 2.94518 31.2177 2.74918ZM5.31435 7.65177V29.5247C5.31435 30.3082 5.90982 30.8965 6.50505 30.8965C9.58267 30.8965 12.8558 31.7812 15.6341 33.4494H3.9253C3.13125 33.4494 2.63362 32.8612 2.63362 32.1741V8.92706C2.63362 8.24 3.22911 7.74824 3.9253 7.65177H5.31435ZM35.8829 7.65177C36.6767 7.65177 37.1715 8.24 37.2722 8.92706V32.1741C37.2722 32.8612 36.6767 33.3506 35.8829 33.4494H23.377C25.957 31.8777 29.2332 30.8965 32.4084 30.8965C33.2022 30.8965 33.6967 30.3082 33.6967 29.5247V7.65177H35.8829ZM6.50505 0C5.71125 0 5.21362 0.588468 5.21362 1.27647V5.19999H3.9253C1.74221 5.19999 -0.0439941 6.86824 0.0536249 9.12236V32.1741C0.0536249 34.2353 1.74221 36 3.9253 36H35.9805C38.1636 36 39.9498 34.3318 39.9498 32.1741V8.92706C39.8522 6.86824 38.1636 5.19999 35.9805 5.19999H33.7977V1.27647C33.7977 0.491997 33.2022 0 32.506 0C28.2408 0 23.7741 1.4727 20.101 4.31764L19.5055 4.80706L18.9103 4.31764C15.4358 1.4727 10.972 0 6.50505 0Z" fill="#3D63C1"/>
</svg>
