<svg width="41" height="42" viewBox="0 0 41 42" fill="none" xmlns="http://www.w3.org/2000/svg">
<path fill-rule="evenodd" clip-rule="evenodd" d="M15.6885 2.96712C23.9625 2.96712 28.9043 5.22331 28.9043 6.61446C28.9043 7.79706 24.0715 10.1575 15.6885 10.1575C7.19965 10.1575 2.47256 7.79706 2.47256 6.61446C2.47256 5.22331 7.3089 2.96712 15.6885 2.96712ZM2.36686 10.0532C5.69568 12.089 11.4968 12.7336 15.4736 12.7336C16.7628 12.7336 17.9461 12.7337 19.1264 12.627V14.1295C19.1264 14.7742 18.5908 15.3098 17.9461 15.3098C15.9033 15.3098 14.2936 16.919 14.2936 18.9595V21.3223C14.2936 21.9646 13.7547 22.5002 13.11 22.5002C12.4654 22.5002 11.9267 21.9646 11.9267 21.3223V18.6372C12.0358 16.5967 10.4225 14.9898 8.38319 14.9898C6.3403 14.9898 4.73041 16.5967 4.73041 18.6372V23.4671C4.73041 24.1117 4.19147 24.645 3.54709 24.645C2.90246 24.645 2.36686 24.1117 2.36686 23.4671V10.0532ZM28.9043 9.83758V28.4037C26.3258 27.8657 23.9625 26.4722 22.3493 24.325L17.4075 17.5636C17.4075 17.5636 17.6222 17.4546 18.0518 17.4546C20.095 17.4546 21.7046 15.8478 21.7046 13.8072V12.089C24.6071 11.6601 27.1854 10.9112 28.9043 9.83758ZM31.3769 13.5916C33.8494 14.6651 35.9982 16.49 37.5022 18.6372C39.8658 21.9646 38.0376 27.0054 34.1701 28.2947C33.2015 28.508 32.2364 28.8327 31.3769 28.8327V13.5916ZM8.48889 17.4546C9.13351 17.4546 9.67221 17.9925 9.67221 18.6372V21.1066C9.67221 23.0381 11.2821 24.645 13.325 24.645C15.2586 24.645 16.8719 23.2538 16.9776 21.2133L20.4154 25.9342C22.0286 28.079 24.3922 29.6906 26.8647 30.5485C27.615 30.8732 28.2597 30.9774 29.0133 31.0865V35.5941C28.9043 36.6677 24.0715 39.0281 15.6885 39.0281C7.19965 39.0281 2.47256 36.5587 2.47256 35.3808V26.6855C2.90246 26.7921 3.33214 27.0054 3.65611 27.0054C5.69568 27.0054 7.30891 25.3986 7.30891 23.3581V18.6372C7.30891 17.9925 7.84426 17.4546 8.48889 17.4546ZM15.4736 0.5C11.4968 0.5 7.84427 1.0356 5.05105 2.00254C0.859575 3.39606 0 5.22331 0 6.61446V35.3808C0 36.7719 0.859575 38.4902 5.05105 39.9927C7.84427 40.9597 11.6061 41.4976 15.4736 41.4976C23.3179 41.4976 31.1621 39.4571 31.1621 35.3808V31.0865C32.4511 31.0865 33.6347 30.8732 34.8147 30.4442C40.2954 28.7236 42.659 21.9646 39.4361 17.1346C37.5022 14.4495 34.8147 12.198 31.1621 10.6955V6.61446C31.1621 2.64718 23.3179 0.5 15.4736 0.5Z" fill="#3D63C1"/>
</svg>
