<svg width="40" height="40" viewBox="0 0 40 40" fill="none" xmlns="http://www.w3.org/2000/svg">
<path fill-rule="evenodd" clip-rule="evenodd" d="M18.9229 2.8556V8.28109C18.9229 8.99916 19.4815 9.46716 20.06 9.46716C20.3069 9.46716 20.5538 9.38254 20.7681 9.20054C21.1776 8.79116 21.7917 8.58647 22.3018 8.58647C23.6336 8.58647 24.657 9.60992 24.657 10.8381C24.657 12.1702 23.6336 13.1934 22.3018 13.1934C21.7917 13.1934 21.1776 12.885 20.7681 12.4756C20.5538 12.2936 20.3069 12.2123 20.06 12.2123C19.4815 12.2123 18.9229 12.677 18.9229 13.3981V18.8239H15.3426C15.4432 18.4145 15.4432 18.0051 15.4432 17.5957C15.4432 15.0357 13.3964 13.0897 10.8395 13.0897C8.27939 13.0897 6.2326 15.0357 6.2326 17.5957C6.2326 18.0051 6.23259 18.4145 6.33314 18.8239H2.75289V3.97951C2.75289 3.36567 3.26296 2.8556 3.87709 2.8556H18.9229ZM36.1193 2.8556C36.6326 2.8556 37.2467 3.36567 37.2467 3.97951V18.9245H31.7203C30.6969 18.9245 30.2876 20.052 30.7977 20.8708C31.2069 21.2801 31.4116 21.8942 31.4116 22.4043C31.4116 23.6322 30.3882 24.6557 29.1601 24.6557C27.828 24.6557 26.8046 23.6322 26.8046 22.4043C26.8046 21.8942 27.1133 21.1761 27.4188 20.8708C28.1367 20.052 27.6234 18.9245 26.6 18.9245H21.1776V15.341C21.5868 15.445 21.9963 15.445 22.3018 15.445C24.8619 15.445 27.0092 13.3981 27.0092 10.8381C27.0092 8.28109 24.8619 6.23111 22.3018 6.23111C21.9963 6.23111 21.5868 6.23111 21.1776 6.33511V2.8556H36.1193ZM10.8395 15.341C12.0676 15.341 13.0909 16.3645 13.0909 17.6966C13.0909 18.2098 12.8863 18.8239 12.4771 19.2332C11.8629 19.948 12.373 21.0755 13.3964 21.0755H18.7182V24.6557C18.4128 24.555 18.0033 24.555 17.594 24.555C15.0339 24.555 12.9871 26.6019 12.9871 29.1619C12.9871 31.7189 15.0339 33.7656 17.594 33.7656C18.0033 33.7656 18.4128 33.7656 18.7182 33.6649V37.2453H3.7763C3.26295 37.2453 2.75289 36.7353 2.75289 36.1212V21.0755H8.27938C9.30278 21.0755 9.81613 19.948 9.20199 19.2332C8.78944 18.8239 8.48403 18.3107 8.48403 17.6966C8.48403 16.3645 9.50742 15.341 10.8395 15.341ZM37.2467 21.0755V36.1212C37.2467 36.7353 36.7334 37.2453 36.0187 37.2453H21.0735V31.7189C21.0735 31.0008 20.5181 30.5331 19.9007 30.5331C19.6408 30.5331 19.3711 30.6175 19.1308 30.7995C18.8221 31.2088 18.3087 31.5142 17.594 31.5142C16.366 31.5142 15.3426 30.4908 15.3426 29.1619C15.3426 27.9307 16.366 26.8066 17.594 26.8066C18.1041 26.8066 18.8221 27.1119 19.1308 27.5213C19.3711 27.7064 19.6408 27.7877 19.9007 27.7877C20.5181 27.7877 21.0735 27.32 21.0735 26.6019V21.0755H24.657C24.5532 21.4848 24.5532 21.8942 24.5532 22.3036C24.5532 24.8603 26.6 26.8066 29.1601 26.8066C31.7203 26.8066 33.7671 24.8603 33.7671 22.3036C33.7671 21.8942 33.7671 21.4848 33.6632 21.0755H37.2467ZM3.87709 0.5C2.03493 0.5 0.501465 2.03684 0.501465 3.97951V36.1212C0.501465 37.9634 2.03493 39.5 3.87709 39.5H36.0187C37.9614 39.5 39.4982 37.9634 39.4982 36.1212V3.97951C39.3943 2.03684 37.8606 0.5 36.0187 0.5H3.87709Z" fill="#3D63C1"/>
</svg>
