<svg width="40" height="40" viewBox="0 0 40 40" fill="none" xmlns="http://www.w3.org/2000/svg">
<path fill-rule="evenodd" clip-rule="evenodd" d="M32.5567 5.07449V10.1919L30.2881 8.23061V5.07449H32.5567ZM20.0732 2.79024C20.3355 2.79024 20.5982 2.88307 20.8107 3.07089L36.6952 16.7783C37.1741 17.1879 37.2282 17.9064 36.8233 18.3866V18.3807C36.6049 18.6369 36.2903 18.7841 35.9637 18.7841C35.6911 18.7841 35.4245 18.6852 35.2241 18.5096L20.8166 6.07341C20.6043 5.89181 20.3417 5.79897 20.0791 5.79897C19.8146 5.79897 19.552 5.89181 19.3395 6.07341L5.65761 17.759C5.59758 17.8036 5.54935 17.8459 5.50137 17.9002L4.78188 18.5096C4.56537 18.6934 4.30489 18.7821 4.04418 18.7821C3.72556 18.7821 3.40907 18.6489 3.1824 18.3866C2.77775 17.9124 2.82573 17.1941 3.29869 16.7783L19.3336 3.07089C19.5461 2.88307 19.8085 2.79024 20.0732 2.79024ZM24.6163 28.0747V37.2157H15.3894V28.0747H24.6163ZM20.0791 8.44451L32.5567 19.2159V37.2157H26.8871V26.9365C26.8871 26.3029 26.378 25.7904 25.7488 25.7904H14.2511C13.6219 25.7904 13.1189 26.3029 13.1189 26.9365V37.2157H7.44334V19.2281L20.0791 8.44451ZM20.0791 0.5C19.2894 0.5 18.4999 0.776352 17.8646 1.32738L1.82167 15.037C0.581229 16.1146 0.272531 17.9246 1.09626 19.3573C1.71553 20.4388 2.85575 21.0686 4.04418 21.0686C4.42095 21.0686 4.80386 21.0059 5.17448 20.8726V38.3599C5.17448 38.9875 5.68171 39.5 6.305 39.5H33.687C34.3162 39.5 34.8254 38.9875 34.8254 38.3599V20.8726C35.2061 21.008 35.5909 21.0724 35.9637 21.0724C37.8614 21.0724 39.5089 19.4439 39.3527 17.3757C39.2844 16.4677 38.8615 15.6282 38.1782 15.037L34.8254 12.1433V3.93439C34.8254 3.30082 34.3162 2.79024 33.6929 2.79024H29.1557C28.5265 2.79024 28.0174 3.30082 28.0174 3.93439V6.27512L22.2936 1.32738C21.6582 0.776352 20.8688 0.5 20.0791 0.5Z" fill="#3D63C1"/>
<path fill-rule="evenodd" clip-rule="evenodd" d="M22.3507 16.4699V21.1356H17.6674V16.4699H22.3507ZM16.5307 14.1381C15.9022 14.1381 15.4019 14.6613 15.4019 15.3081V22.3056C15.4019 22.9461 15.9022 23.4674 16.5307 23.4674H23.4815C24.1097 23.4674 24.6163 22.9461 24.6163 22.3056V15.3081C24.6163 14.6613 24.1097 14.1381 23.4815 14.1381H16.5307Z" fill="#3D63C1"/>
<path fill-rule="evenodd" clip-rule="evenodd" d="M21.1878 30.4101C20.5983 30.4101 20.1289 30.9444 20.1289 31.6074C20.1289 32.2642 20.5983 32.8006 21.1878 32.8006C21.7773 32.8006 22.2543 32.2642 22.2543 31.6074C22.2543 30.9444 21.7773 30.4101 21.1878 30.4101Z" fill="#3D63C1"/>
</svg>
